<?xml version="1.0" encoding="UTF-8"?>
<!-- Generator: Adobe Illustrator 26.5.0, SVG Export Plug-In . SVG Version: 6.00 Build 0)  -->
<svg version="1.1" id="Laag_1" xmlns="http://www.w3.org/2000/svg" xmlns:xlink="http://www.w3.org/1999/xlink" x="0px" y="0px" width="164.4" height="68.3" viewBox="0 0 164.4 68.3" style="enable-background:new 0 0 164.4 68.3;" xml:space="preserve"><script xmlns=""/>
<style type="text/css">
	.st0{fill-rule:evenodd;clip-rule:evenodd;fill:#562082;}
	.st1{filter:url(#Adobe_OpacityMaskFilter);}
	.st2{fill-rule:evenodd;clip-rule:evenodd;fill:#FFFFFF;}
	.st3{mask:url(#mask-2_00000150794872543114079080000017153510375661533855_);fill-rule:evenodd;clip-rule:evenodd;fill:#562082;}
</style>
<g id="Presentatie-09-06">
	<g id="job-detail-mobile" transform="translate(-16.000000, -129.000000)">
		<g id="header" transform="translate(15.000000, 125.000000)">
			<g id="logo-vebego" transform="translate(1.000000, 4.000000)">
				<path id="Fill-1" class="st0" d="M43.7,36.9c2.3-0.2,3.4-0.8,3.4-2.3s-1.1-2.3-3-2.3c-2.9,0-4.1,1.9-4.2,4.9L43.7,36.9z       M35.4,38.7c0-6.6,3.1-10,8.8-10c4.6,0,7.4,2.2,7.4,5.9c0,3-2,5-6.3,5.3L40,40.2c0.2,3.1,1.8,4.1,4.8,4.1c2,0,3.9-0.5,5.9-1.5      v4.2c-1.5,0.8-4.1,1.2-6.4,1.2C38.4,48.3,35.4,45.2,35.4,38.7L35.4,38.7z"/>
				<path id="Fill-3" class="st0" d="M81.9,36.9c2.3-0.2,3.4-0.8,3.4-2.3s-1.1-2.3-3-2.3c-2.9,0-4.1,1.9-4.2,4.9L81.9,36.9z       M73.5,38.7c0-6.6,3.1-10,8.8-10c4.6,0,7.4,2.2,7.4,5.9c0,3-2,5-6.3,5.3l-5.3,0.4c0.2,3.1,1.8,4.1,4.8,4.1c2,0,3.9-0.5,5.9-1.5      v4.2c-1.5,0.8-4.1,1.2-6.4,1.2C76.5,48.3,73.5,45.2,73.5,38.7L73.5,38.7z"/>
				<path id="Fill-5" class="st0" d="M123.9,38.5c0-4.2-1.2-5.9-4.1-5.9c-2.9,0-4.1,1.7-4.1,5.9s1.2,5.9,4.1,5.9      C122.7,44.4,123.9,42.7,123.9,38.5 M111.1,38.5c0-6.6,2.9-9.8,8.7-9.8s8.7,3.2,8.7,9.8s-2.9,9.8-8.7,9.8S111.1,45.1,111.1,38.5"/>
				<path id="Fill-7" class="st0" d="M30.6,22.8c-0.8,6.6-3.7,15.3-5.7,20c-1.7-4-3.9-10.6-5.1-16.5c0,0,0,0,0,0      c-0.3-1.3-0.9-3.4-3.2-3.5h-2.3c0,3.9,4.7,19.4,8.3,25.1h4.4c3.6-5.8,8.3-21.2,8.3-25.1H30.6z"/>
				<path id="Fill-9" class="st0" d="M100.3,41.5c-2.4,0-3.6-1.4-3.6-4.5c0-3.1,1.2-4.5,3.6-4.5c2.4,0,3.6,1.4,3.6,4.5      C104,40.1,102.8,41.5,100.3,41.5 M108.3,37c0-2-0.5-3.9-1.5-5.2c0.9-0.7,1.5-1.8,1.9-3.2c0.3-1.6-0.3-2.7-1.4-2.9h-2.2      c-0.1,2.1-0.5,3.1-1.1,3.8c-1-0.4-2.2-0.7-3.7-0.7c-5,0-7.8,2.9-7.8,8.2c0,5.4,2.9,8.2,7.8,8.2c1.1,0,1.9-0.1,2.8-0.4      c0.6,0.8,0.9,1.7,0.9,2.5c0,1.8-1.5,3-4.4,3c-1.3,0-3.2-0.2-5.7-1.4v4c1.9,0.8,4.5,1.2,6.4,1.2c5.2,0,8.3-2.7,8.3-6.2      c0-1.7-0.8-3.5-2.2-5.2C107.6,41.4,108.3,39.4,108.3,37"/>
				<path id="Fill-11" class="st0" d="M63.7,28.7c-0.4,0-0.8,0-1.2,0.1c-0.7,0.2-2.2,0.9-2.2,4.3c0.7-0.3,1.5-0.5,2.3-0.5      c2.5,0,3.7,1.7,3.7,5.5c0,4.2-1.4,6.2-4.5,6.2c-1.2,0-2.1-0.3-3-0.8h0v0c0,0,0,0,0,0V34c0,0,0,0,0,0v-3.5c0,0,0,0,0,0v-7.7h-4.5      v25.1h2.9l0.6-1.3c1.2,1.1,2.8,1.7,4.8,1.7c5.2,0,8.2-3.7,8.2-10.2C70.9,32,68.3,28.7,63.7,28.7"/>
				<g id="Group-15" transform="translate(116.402417, 0.000000)">
					<g id="Clip-14">
					</g>
					<defs>
						<filter id="Adobe_OpacityMaskFilter" filterUnits="userSpaceOnUse" x="14.2" y="14.2" width="10.5" height="8.5">
							<feColorMatrix type="matrix" values="1 0 0 0 0  0 1 0 0 0  0 0 1 0 0  0 0 0 1 0"/>
						</filter>
					</defs>
					
						<mask maskUnits="userSpaceOnUse" x="14.2" y="14.2" width="10.5" height="8.5" id="mask-2_00000150794872543114079080000017153510375661533855_">
						<g class="st1">
							<polygon id="path-1_00000057854906374976941360000000304405269457362864_" class="st2" points="14.2,14.2 24.7,14.2          24.7,22.7 14.2,22.7        "/>
						</g>
					</mask>
					<path id="Fill-13" class="st3" d="M18.9,22.7c0,0,0.1,0,0.1,0c0.2,0,0.8,0,1,0c3-0.3,4.8-2.5,4.7-5.7c0-0.8-0.2-1.5-0.6-2       c-0.5-0.6-1-0.8-1.7-0.7c-0.7,0.1-0.9,0.7-0.9,1c0,0.4,0.2,0.9,0.3,1.5c0.2,0.9,0.5,2.1,0.3,3.3c0,0-0.1,0.5-0.2,0.7       c-0.7,0.3-1.3,0.2-1.7,0.1c-1-0.2-1.8-0.6-2.7-1c-0.4-0.2-0.7-0.4-1.2-0.6c-0.5-0.3-1.3-0.4-1.9,0.2c-0.4,0.4-0.3,0.9,0.5,1.7       C15.7,21.9,17.2,22.6,18.9,22.7"/>
				</g>
				<path id="Fill-16" class="st0" d="M142.5,24.4c1.3-1.6,3.3-2.4,4.9-3.1c1-0.4,2-0.9,2.5-1.4c0.2-0.2,0.5-0.9,0.2-1.5      c-0.5-1-2-0.9-2.1-0.9c-1.5,0.1-3.6,1.3-5,2.8l0,0l0,0.1c-0.3,0.3-0.6,0.7-0.8,1c-2.3,3.4-1.6,7.1,1.8,9.8      c0.6,0.4,1.7,1.2,2.7,1.2c0,0,0.1,0,0.1,0c0.4,0,1.4-0.1,2-0.9c0.7-1-0.2-1.9-0.2-1.9c-0.4-0.4-1.1-0.8-1.9-1.2      c-1.1-0.6-2.6-1.4-3.7-2.6c0,0-0.5-0.5-0.7-1C142.3,24.7,142.5,24.4,142.5,24.4"/>
				<path id="Fill-18" class="st0" d="M135.5,24.2L135.5,24.2c-0.6-0.3-1.1-0.5-1.6-0.7l0,0c0,0-1.3-0.4-3-0.5      c-1.6-0.1-3.8-0.1-5.4,0.9c0,0-1,0.6-1,1.7c0,0.8,0.9,1.6,2.1,1.7c0.6,0,1.3,0,2.5-0.1c2.3-0.1,5.2-0.3,7.8,0.6      c0.4,0.1,0.6,0.3,0.9,0.5c0.1,0.6,0.1,1.1-0.1,1.6l0,0c-0.5,2.2-1.6,4.1-2.6,5.6c-0.5,0.8-1.1,1.7-1.4,2.3c0,0-0.2,0.4-0.2,0.9      c0,0.7,0.4,1.1,1,1.5c0.5,0.2,0.9,0.3,1.4,0.3c0.9,0,1.7-0.4,2.1-0.8c0.9-0.8,1.6-1.8,2.1-2.8C142.1,31.4,140.4,26.5,135.5,24.2      "/>
			</g>
		</g>
	</g>
</g>
</svg>